<?xml version="1.0" encoding="UTF-8"?>
<svg width="96px" height="96px" viewBox="0 0 96 96" version="1.1" xmlns="http://www.w3.org/2000/svg" xmlns:xlink="http://www.w3.org/1999/xlink">
    <!-- Generator: Sketch 52.2 (67145) - http://www.bohemiancoding.com/sketch -->
    <title>ic_flower</title>
    <desc>Created with Sketch.</desc>
    <g id="Page-1" stroke="none" stroke-width="1" fill="none" fill-rule="evenodd">
        <g id="monastic2" transform="translate(-1162.000000, -3154.000000)" fill="#FFFFFF" fill-rule="nonzero">
            <g id="Group-7" transform="translate(0.000000, 2886.000000)">
                <g id="ic_flower" transform="translate(1162.000000, 268.000000)">
                    <path d="M95.5466168,46.9053179 L87.9595927,39.3184123 C86.0469659,37.4116217 83.8157615,35.85379 81.3666237,34.7151735 C82.8441579,31.4928676 83.6106022,27.9899236 83.6133118,24.4449807 L83.6133118,13.9363423 C83.6133118,13.0812671 82.9200281,12.3879943 82.0649395,12.3879943 L71.556137,12.3879943 C68.0107516,12.3901232 64.5071723,13.1557814 61.2842354,14.633099 C60.1456012,12.1839994 58.5877451,9.95282982 56.6809247,8.04023286 L49.0939006,0.453327285 C48.4892612,-0.151109095 47.5091416,-0.151109095 46.9045022,0.453327285 L39.3174781,8.04023286 C37.4106577,9.95282982 35.8528017,12.1839994 34.7141674,14.633099 C31.4920047,13.156362 27.9897802,12.3905103 24.4453626,12.3879943 L13.93656,12.3879943 C13.0814714,12.3879943 12.3881878,13.0812671 12.3881878,13.9363423 L12.3881878,24.4449807 C12.3903168,27.9903107 13.1559869,31.4936418 14.6333275,34.7167219 C12.1841897,35.8553383 9.95298529,37.41317 8.04035845,39.3199607 L0.453334366,46.9068663 C-0.151111455,47.5114962 -0.151111455,48.4916005 0.453334366,49.0962304 L8.04035845,56.683136 C9.95298529,58.5899267 12.1841897,60.1477584 14.6333275,61.2863748 C13.1565675,64.5084872 12.3907039,68.010657 12.3881878,71.5550193 L12.3881878,82.0636577 C12.3881878,82.9187329 13.0814714,83.6120057 13.93656,83.6120057 L24.4453626,83.6120057 C27.990748,83.6098768 31.4943273,82.8442186 34.7172641,81.366901 C35.8558984,83.8160006 37.4137544,86.0471702 39.3205749,87.9597671 L46.907599,95.5466727 C47.5122383,96.1511091 48.492358,96.1511091 49.0969973,95.5466727 L56.6840214,87.9597671 C58.5908419,86.0471702 60.1486979,83.8160006 61.2873322,81.366901 C64.5094948,82.8438316 68.0117193,83.6094897 71.556137,83.6120057 L82.0649395,83.6120057 C82.9200281,83.6120057 83.6133118,82.9187329 83.6133118,82.0636577 L83.6133118,71.5550193 C83.6111828,68.0096893 82.8455127,64.5063582 81.368172,61.2832781 C83.8173099,60.1446617 86.0485143,58.58683 87.9611411,56.6800393 L95.5481652,49.0931337 C96.1512562,48.4883103 96.150482,47.5093672 95.5466168,46.9053179 Z M62.4238374,17.5192198 C65.2825197,16.181447 68.3999737,15.4870129 71.556137,15.4846904 L80.5165673,15.4846904 L80.5165673,24.4449807 C80.5152125,27.6020624 79.8211546,30.7204355 78.4835545,33.5802344 C76.2349309,32.875736 73.8924372,32.5170999 71.5360082,32.5165192 L70.9166593,32.5165192 C67.6617872,32.5155515 64.4433019,33.2014697 61.4715885,34.5293717 C62.7995112,31.5577047 63.4854401,28.3392697 63.4844724,25.0844485 L63.4844724,24.4651092 C63.4848595,22.1094912 63.1271855,19.7674212 62.4238374,17.5192198 Z M70.9166593,35.6132154 L71.5360082,35.6132154 C73.3650229,35.6168927 75.1849409,35.8690799 76.9460208,36.3626159 C76.1340931,37.5889075 75.2002311,38.7302336 74.1589508,39.7689816 L73.8306959,40.0972314 C69.7735734,44.1749996 64.2540134,46.4607485 58.5018105,46.4454585 L51.7385204,46.4516519 L56.6809247,41.5093249 C60.4483079,37.7214848 65.5743879,35.5983125 70.9166593,35.6132154 Z M60.3877279,24.4651092 L60.3877279,25.0844485 C60.4022439,30.4260558 58.2790384,35.5516686 54.4915263,39.3184123 L49.5490458,44.2622877 L49.549122,37.4913616 C49.5338319,31.7392485 51.8196164,26.2197747 55.8974483,22.1627157 L56.2257032,21.8344659 C57.2644675,20.7932018 58.4058114,19.8595479 59.6321222,19.0474393 C60.1285691,20.8108142 60.3826957,22.6334135 60.3877279,24.4651092 Z M41.5099733,10.229597 L48.0007498,3.7389219 L54.4915263,10.229597 C56.1854456,11.9292961 57.5609808,13.9189234 58.5529067,16.1040296 C56.9168579,17.1063915 55.4023563,18.2945551 54.0394016,19.6451017 L53.7111467,19.9733515 C51.181687,22.5045135 49.2332541,25.5557269 48.0007498,28.9150616 C46.768439,25.5563076 44.8205867,22.5058683 42.2919013,19.9748998 L41.9636463,19.64665 C40.6003046,18.2955228 39.0852223,17.1067786 37.4485928,16.1040296 C38.4405188,13.919117 39.816054,11.9294897 41.5099733,10.229597 Z M35.6137717,24.4651092 C35.6174491,22.6361231 35.8696402,20.8162335 36.3631839,19.0551811 C37.5894947,19.8670961 38.7308386,20.8009435 39.7696028,21.8422076 L40.0978578,22.1704574 C44.1756897,26.2275164 46.4614742,31.7469902 46.446184,37.4991033 L46.4462603,44.2700295 L41.5037798,39.3277024 C37.7162677,35.5576684 35.5951912,30.4283783 35.6137717,25.0844485 L35.6137717,24.4651092 Z M39.3190265,41.5093249 L44.2629791,46.4517281 L37.4919472,46.4516519 C31.7397443,46.4669419 26.2201843,44.181193 22.1630618,40.1034248 L21.8348069,39.775175 C20.7935266,38.736427 19.8598581,37.5951009 19.0477369,36.3688093 C20.8111393,35.8725637 22.633767,35.6184411 24.4654914,35.6132154 L25.0848403,35.6132154 C30.4267246,35.5986996 35.5522239,37.7218719 39.3190265,41.5093249 Z M15.4849323,15.4846904 L24.4453626,15.4846904 C27.6024936,15.4860452 30.7209153,16.1800922 33.5807589,17.5176714 C32.8762495,19.7662599 32.5176078,22.108717 32.5170272,24.4651092 L32.5170272,25.0844485 C32.5160594,28.3392697 33.2019883,31.5577047 34.5299111,34.5293717 C31.5581976,33.2014697 28.3397123,32.5155515 25.0848403,32.5165192 L24.4654914,32.5165192 C22.1098366,32.5163257 19.76773,32.8738006 17.5194934,33.5771377 C16.1816998,30.7185 15.4872548,27.6010947 15.4849323,24.4449807 L15.4849323,15.4846904 Z M10.2297568,54.4906751 L3.73898031,48 L10.2297568,41.5093249 C11.9294825,39.8154321 13.9191408,38.4399183 16.1042812,37.4480079 C17.1066587,39.0840311 18.2948408,40.5985091 19.6454086,41.9614425 L19.9736635,42.2896923 C22.504865,44.8191124 25.5561261,46.7675149 28.9155133,48 C25.5567068,49.2322915 22.5062199,51.1801134 19.9752118,53.7087594 L19.6469569,54.0370091 C18.2958086,55.4003296 17.1070458,56.9153882 16.1042812,58.5519921 C13.9193344,57.5600817 11.929676,56.1845679 10.2297568,54.4906751 Z M33.5776622,78.4807802 C30.7189799,79.818553 27.6015259,80.5129871 24.4453626,80.5153096 L15.4849323,80.5153096 L15.4849323,71.5550193 C15.4862871,68.3979376 16.180345,65.2795645 17.5179451,62.4197656 C19.7665687,63.124264 22.1090624,63.4829001 24.4654914,63.4834808 L25.0848403,63.4834808 C28.3397123,63.4844485 31.5581976,62.7985303 34.5299111,61.4706283 C33.2019883,64.4422953 32.5160594,67.6607303 32.5170272,70.9155515 L32.5170272,71.5348908 C32.5168336,73.8905088 32.8745076,76.2325788 33.5776622,78.4807802 Z M25.0848403,60.3867846 L24.4654914,60.3867846 C22.6364767,60.3829137 20.8165586,60.1309201 19.0554787,59.6373841 C19.8674064,58.4110925 20.8012684,57.2697664 21.8425488,56.2310184 L22.1708037,55.9027686 C26.2279261,51.8250004 31.7474862,49.5392515 37.4996891,49.5545415 L44.2629791,49.5483481 L39.3205749,54.4906751 C35.5533852,58.2785152 30.4271117,60.4016875 25.0848403,60.3867846 Z M35.6137717,71.5348908 L35.6137717,70.9155515 C35.5992557,65.5739442 37.7224612,60.4483314 41.5099733,56.6815877 L46.4524537,51.7377123 L46.4523775,58.5086384 C46.4676677,64.2607515 44.1818831,69.7802253 40.1040512,73.8372843 L39.7757963,74.1655341 C38.7370321,75.2067982 37.5956882,76.1406456 36.3693774,76.9525607 C35.873124,75.1893793 35.6189974,73.3667801 35.6137717,71.5348908 Z M54.4915263,85.770403 L48.0007498,92.2610781 L41.5099733,85.770403 C39.8168282,84.0728328 38.441293,82.0861087 37.4485928,79.9037121 C39.0850288,78.8990277 40.5995304,77.7081545 41.962098,76.3548983 L42.2903529,76.0266485 C44.819619,73.4954865 46.7682455,70.4442731 48.0007498,67.0849384 C49.2330606,70.4436924 51.1809129,73.4941317 53.7095983,76.0251002 L54.0378532,76.35335 C55.4008079,77.7066062 56.9158902,78.8974794 58.5529067,79.9021638 C57.5604001,82.085141 56.1848649,84.0724458 54.4915263,85.770403 Z M60.3877279,71.5348908 C60.3838569,73.3638769 60.1318594,75.1837665 59.6383157,76.9448189 C58.4120049,76.1329039 57.270661,75.1990565 56.2318967,74.1577924 L55.9036418,73.8295426 C51.8258099,69.7724836 49.5400254,64.2530098 49.5553155,58.5008967 L49.5552393,51.7377123 L54.4977198,56.6800393 C58.2832964,60.4481379 60.4043729,65.5741377 60.3877279,70.9155515 L60.3877279,71.5348908 Z M56.6824731,54.4906751 L51.7385204,49.5482719 L58.5095523,49.5483481 C64.2617553,49.5330581 69.7813153,51.818807 73.8384377,55.8965752 L74.1666926,56.224825 C75.207973,57.263573 76.1416415,58.4048991 76.9537627,59.6311907 C75.1903602,60.1274363 73.3679261,60.3817525 71.5360082,60.3867846 L70.9166593,60.3867846 C65.5749685,60.4013004 60.4494692,58.2781281 56.6824731,54.4906751 Z M80.5165673,80.5153096 L71.556137,80.5153096 C68.399006,80.5139548 65.2805842,79.8199078 62.4207407,78.4823286 C63.12525,76.2337401 63.4838918,73.891283 63.4844724,71.5348908 L63.4844724,70.9155515 C63.4854401,67.6607303 62.7995112,64.4422953 61.4715885,61.4706283 C64.4433019,62.7985303 67.6617872,63.4844485 70.9166593,63.4834808 L71.5360082,63.4834808 C73.891663,63.4836743 76.2337696,63.1261994 78.4820061,62.4228623 C79.8197998,65.2815 80.5142447,68.3989053 80.5165673,71.5550193 L80.5165673,80.5153096 Z M85.7717427,54.4906751 C84.0741461,56.1837938 82.0873909,57.5593075 79.9049602,58.5519921 C78.9002602,56.9155818 77.7093684,55.4009103 76.356091,54.0385575 L76.0278361,53.7103077 C73.4966345,51.1810811 70.4453735,49.2324851 67.0859863,48 C70.4447928,46.7677085 73.4952797,44.8198866 76.0262877,42.2912406 L76.3545426,41.9629909 C77.70782,40.6000575 78.8987118,39.0849989 79.9034119,37.4480079 C82.0858426,38.4406925 84.0727913,39.8162062 85.7701944,41.5093249 L92.2625193,48 L85.7717427,54.4906751 Z" id="Shape"></path>
                </g>
            </g>
        </g>
    </g>
</svg>