<?xml version="1.0" encoding="UTF-8"?>
<svg width="104px" height="96px" viewBox="0 0 104 96" version="1.1" xmlns="http://www.w3.org/2000/svg" xmlns:xlink="http://www.w3.org/1999/xlink">
    <!-- Generator: Sketch 52.2 (67145) - http://www.bohemiancoding.com/sketch -->
    <title>ic_spa</title>
    <desc>Created with Sketch.</desc>
    <g id="Page-1" stroke="none" stroke-width="1" fill="none" fill-rule="evenodd">
        <g id="monastic2" transform="translate(-671.000000, -3156.000000)" fill="#FFFFFF">
            <g id="Group-7" transform="translate(0.000000, 2886.000000)">
                <g id="ic_spa" transform="translate(671.000000, 270.000000)">
                    <path d="M102.265532,78.545385 L100.33982,78.545385 C105.127667,73.8533664 105.231883,66.1410448 100.572518,61.3196438 C99.8332594,60.5546953 98.9973687,59.8909836 98.0865121,59.3453087 C101.748138,57.143409 103.99278,53.1672478 103.998847,48.8725398 C103.99018,42.1282948 98.5629568,36.6630367 91.8656478,36.6543094 L76.2658208,36.6543094 L76.2658208,24.436079 C76.2653875,23.4721479 75.4890794,22.6908357 74.5318567,22.691272 C74.443891,22.691272 74.3559253,22.6980357 74.2690429,22.711563 L53.7327374,25.8917939 L53.7327374,24.2615328 C57.765076,23.4265477 60.6607939,19.8544608 60.6659938,15.7087716 C60.6659938,8.09157763 53.5299396,0.816494156 53.2248763,0.511038396 C52.5480172,-0.170346132 51.4508294,-0.170346132 50.7739702,0.511038396 C50.4689069,0.816494156 43.3328527,8.09157763 43.3328527,15.7087716 C43.3380527,19.8544608 46.2337706,23.4265477 50.2661092,24.2615328 L50.2661092,26.4311415 L29.2028761,29.6951544 C28.3581021,29.8260641 27.7341091,30.5571942 27.7330257,31.4179249 L27.7330257,50.8641113 C26.4670565,49.4891241 25.006956,48.3091921 23.3997405,47.3627156 C22.8634964,47.0509325 22.2026704,47.0509325 21.6664264,47.3627156 C16.5479498,50.3577093 13.0925881,55.56813 12.3065302,61.4765172 C11.1085935,61.229098 9.88942365,61.0999339 8.66657055,61.0907702 C7.90152903,61.0942611 7.13757084,61.1442249 6.37859592,61.2408799 C5.76370274,61.3154984 5.2352586,61.7147727 4.99194463,62.2881568 C1.45988381,70.6314627 4.21260328,80.3255376 11.5906714,85.527231 L0,85.527231 L0,89.018154 L4.12875421,89.018154 L7.11525442,95.0347597 C7.4088345,95.6264711 8.0096445,96.0002181 8.66657055,95.9999999 L74.5325067,95.9999999 C75.4897294,95.9999999 76.2658208,95.2184695 76.2658208,94.2545384 L76.2658208,89.018154 L87.3278314,89.018154 L90.3143317,95.0347597 C90.6079117,95.6264711 91.2087217,96.0002181 91.8656478,95.9999999 L98.7989042,95.9999999 C99.7561269,95.9999999 100.532218,95.2184695 100.532218,94.2545384 L100.532218,89.018154 L102.265532,89.018154 C103.222755,89.018154 103.998847,88.2366236 103.998847,87.2726925 L103.998847,80.2908465 C103.998847,79.3269154 103.222755,78.545385 102.265532,78.545385 Z M100.532218,69.8180776 C100.526585,74.6355513 96.6495947,78.5397123 91.8656478,78.545385 L60.6659938,78.545385 C55.8796636,78.545385 51.9994233,74.6379513 51.9994233,69.8180776 C51.9994233,64.9982039 55.8796636,61.0907702 60.6659938,61.0907702 L83.1990772,61.0907702 C86.0709621,61.0907702 88.3990196,63.4351431 88.3990196,66.3271546 C88.3990196,69.2191661 86.0709621,71.5635391 83.1990772,71.5635391 L65.8659361,71.5635391 C64.9087134,71.5635391 64.132622,70.7820087 64.132622,69.8180776 C64.132622,68.8541465 64.9087134,68.0726161 65.8659361,68.0726161 L77.9991349,68.0726161 L77.9991349,64.5816932 L65.8659361,64.5816932 C62.9940513,64.5816932 60.6659938,66.9260661 60.6659938,69.8180776 C60.6659938,72.7100891 62.9940513,75.0544621 65.8659361,75.0544621 L83.1990772,75.0544621 C87.9830242,75.0487893 91.8600145,71.1446283 91.8656478,66.3271546 C91.8593645,64.4324562 91.2342881,62.5925216 90.0872675,61.0907702 L91.8656478,61.0907702 C96.6495947,61.0964429 100.526585,65.0006039 100.532218,69.8180776 Z M86.6657055,40.1452324 C89.5375903,40.1452324 91.8656478,42.4896053 91.8656478,45.3816168 C91.8656478,48.2736283 89.5375903,50.6180013 86.6657055,50.6180013 L69.3325644,50.6180013 C68.3753416,50.6180013 67.5992503,49.8364709 67.5992503,48.8725398 C67.5992503,47.9086087 68.3753416,47.1270783 69.3325644,47.1270783 L81.4657631,47.1270783 L81.4657631,43.6361553 L69.3325644,43.6361553 C66.4606796,43.6361553 64.132622,45.9805283 64.132622,48.8725398 C64.132622,51.7645513 66.4606796,54.1089242 69.3325644,54.1089242 L86.6657055,54.1089242 C91.4496524,54.1032515 95.3266427,50.1990905 95.332276,45.3816168 C95.3305427,43.5811733 94.7706822,41.8263299 93.7306938,40.3616696 C98.3985087,41.4281465 101.324126,46.103147 100.265071,50.8036747 C99.3739312,54.759545 95.8936531,57.5754108 91.8656478,57.5998472 L83.1990772,57.5998472 L67.5992503,57.5998472 C62.81292,57.5998472 58.9326797,53.6924135 58.9326797,48.8725398 C58.9326797,44.0526661 62.81292,40.1452324 67.5992503,40.1452324 L86.6657055,40.1452324 Z M46.7994809,15.7087716 C46.7994809,11.2456265 50.1361106,6.60444444 51.9994233,4.3632719 C53.8644693,6.60269898 57.1993656,11.2351538 57.1993656,15.7087716 C57.1902657,17.9198349 55.8029644,19.88697 53.7327374,20.6239911 L53.7327374,17.454233 L50.2661092,17.454233 L50.2661092,20.6239911 C48.1958821,19.88697 46.8085808,17.9198349 46.7994809,15.7087716 Z M22.5330834,50.9286934 C26.4055238,53.5532129 28.9129793,57.7813752 29.3710076,62.459212 C26.7857696,63.4988525 24.4574954,65.0948588 22.5486832,67.1353033 C20.6260046,65.1027134 18.2866805,63.5165253 15.6934259,62.4871394 C16.1434376,57.7986116 18.6524098,53.5586675 22.5330834,50.9286934 Z M31.2278203,65.4696967 C32.8896352,64.8819125 34.6381158,64.5816932 36.3995963,64.5816932 C36.6717266,64.5816932 36.9559901,64.5921659 37.2523868,64.611366 C40.1080218,72.7969258 35.8334526,81.7635797 27.7048594,84.6392275 C26.0430445,85.2270116 24.2943472,85.527231 22.5330834,85.527231 C22.2609531,85.527231 21.9766896,85.5167582 21.6802929,85.4975581 C18.8246579,77.3119983 23.0992271,68.3453445 31.2278203,65.4696967 Z M6.93325644,69.8180776 C6.93108979,68.0446887 7.22878649,66.2839545 7.81378,64.611366 C8.11017672,64.5921659 8.39444023,64.5816932 8.66657055,64.5816932 C13.1549874,64.5681658 17.4269567,66.52221 20.3699074,69.9350235 C17.5274889,74.3344592 16.6296322,79.7259716 17.8912682,84.8185736 C11.3720572,82.7724564 6.93195645,76.6945413 6.93325644,69.8180776 Z M35.3284082,92.5090769 L9.73775866,92.5090769 L8.00444456,89.018154 L37.0617223,89.018154 L35.3284082,92.5090769 Z M51.9994233,92.5090769 L39.2040985,92.5090769 L40.9374126,89.018154 L45.0661668,89.018154 L45.0661668,85.527231 L33.4616289,85.527231 C40.8479303,80.3327376 43.607583,70.6356081 40.0742222,62.2899022 C39.8309082,61.7165181 39.3024641,61.3172438 38.6875709,61.2426253 C36.7152761,60.9873516 34.7145983,61.0580428 32.7648366,61.4520807 C32.4944396,59.5106912 31.9291625,57.6227564 31.0887219,55.8543857 L31.199654,55.8543857 L31.199654,32.9155309 L72.7991926,26.4712871 L72.7991926,36.6543094 L67.5992503,36.6543094 C60.9069245,36.6453639 55.4745014,42.1014583 55.4656182,48.8406851 C55.4612849,52.1862984 56.8210698,55.3870384 59.2273431,57.6941021 C52.5829001,58.4834871 47.8323195,64.5476567 48.6162108,71.2386651 C48.9414239,74.0148216 50.2037099,76.5943955 52.1918211,78.545385 L50.2661092,78.545385 C49.3088864,78.545385 48.5327951,79.3269154 48.5327951,80.2908465 L48.5327951,87.2726925 C48.5327951,88.2366236 49.3088864,89.018154 50.2661092,89.018154 L51.9994233,89.018154 L51.9994233,92.5090769 Z M59.5948057,92.5090769 L55.4660515,92.5090769 L55.4660515,89.018154 L61.3281198,89.018154 L59.5948057,92.5090769 Z M72.7991926,92.5090769 L63.470496,92.5090769 L65.2038102,89.018154 L72.7991926,89.018154 L72.7991926,92.5090769 Z M97.0655901,92.5090769 L92.9368359,92.5090769 L91.2035218,89.018154 L97.0655901,89.018154 L97.0655901,92.5090769 Z M100.532218,85.527231 L51.9994233,85.527231 L51.9994233,82.036308 L100.532218,82.036308 L100.532218,85.527231 Z" id="Shape" fill-rule="nonzero"></path>
                    <rect id="Rectangle" x="34" y="37" width="3" height="14"></rect>
                    <rect id="Rectangle" x="34" y="54" width="3" height="3"></rect>
                </g>
            </g>
        </g>
    </g>
</svg>